<svg width="16" height="16" viewBox="0 0 16 16" fill="none" xmlns="http://www.w3.org/2000/svg">
<path d="M4.4755 9.67413C4.4755 9.34938 4.3487 9.10116 4.0951 8.92945C3.84534 8.75775 3.48031 8.67189 3 8.67189V7.33371C3.48415 7.33371 3.8511 7.25159 4.10086 7.08735C4.35062 6.92311 4.4755 6.68794 4.4755 6.38186V6.33707V4.55655C4.4755 3.98544 4.66186 3.58417 5.03458 3.35274C5.4073 3.11758 6.06244 3 7 3V4.2598C6.6196 4.271 6.35639 4.34192 6.21037 4.47256C6.0682 4.60321 5.99712 4.79545 5.99712 5.04927V6.7234C5.97406 7.42516 5.5245 7.83949 4.64842 7.96641V8.0336C5.54755 8.16424 5.99712 8.55991 5.99712 9.22061V9.271V10.9451C5.99712 11.199 6.0682 11.3912 6.21037 11.5218C6.35255 11.6525 6.61575 11.7234 7 11.7346V13C6.06244 13 5.4073 12.8824 5.03458 12.6473C4.66186 12.4158 4.4755 12.0127 4.4755 11.4378V9.67413Z" fill="#F9FAFB"/>
<path d="M11.5245 11.4378C11.5245 11.8559 11.4457 12.1713 11.2882 12.3841C11.1306 12.5969 10.8694 12.7518 10.5043 12.8488C10.1431 12.9496 9.64169 13 9 13V11.7346C9.3804 11.7271 9.64169 11.6599 9.78386 11.533C9.92987 11.4061 10.0029 11.2102 10.0029 10.9451V9.271V9.20941C10.0029 8.88839 10.1162 8.62897 10.3429 8.43113C10.5696 8.22956 10.9039 8.09705 11.3458 8.0336V7.96641C10.4736 7.83949 10.0259 7.42516 10.0029 6.7234V5.04927C10.0029 4.78798 9.9318 4.59388 9.78963 4.46697C9.64745 4.34005 9.38425 4.271 9 4.2598V3C9.64169 3 10.1451 3.05039 10.5101 3.15118C10.8751 3.24823 11.1345 3.405 11.2882 3.6215C11.4457 3.83427 11.5245 4.14595 11.5245 4.55655V6.33707V6.39306C11.5245 6.70661 11.6417 6.94177 11.8761 7.09854C12.1143 7.25532 12.489 7.33371 13 7.33371V8.67189C12.5197 8.67189 12.1527 8.74841 11.8991 8.90146C11.6494 9.0545 11.5245 9.31206 11.5245 9.67413V11.4378Z" fill="#F9FAFB"/>
</svg>
